<svg width="14" height="15" viewBox="0 0 14 15" fill="none" xmlns="http://www.w3.org/2000/svg">
<path d="M2.50003 8.5L0.720035 11.05C0.639743 11.2064 0.602089 11.3811 0.610867 11.5567C0.619645 11.7323 0.674545 11.9024 0.770035 12.05C0.860105 12.1941 0.985417 12.3129 1.13414 12.3951C1.28286 12.4774 1.45009 12.5203 1.62003 12.52H12.38C12.55 12.5203 12.7172 12.4774 12.8659 12.3951C13.0147 12.3129 13.14 12.1941 13.23 12.05C13.3178 11.898 13.364 11.7255 13.364 11.55C13.364 11.3745 13.3178 11.202 13.23 11.05L11.5 8.5" stroke="#EB420E" stroke-linecap="round" stroke-linejoin="round"/>
<path d="M3.5 2.5C3.23478 2.5 2.98043 2.60536 2.79289 2.79289C2.60536 2.98043 2.5 3.23478 2.5 3.5V8.5H11.5V3.5C11.5 3.23478 11.3946 2.98043 11.2071 2.79289C11.0196 2.60536 10.7652 2.5 10.5 2.5H3.5Z" stroke="#EB420E" stroke-linecap="round" stroke-linejoin="round"/>
</svg>
