<svg width="14" height="15" viewBox="0 0 14 15" fill="none" xmlns="http://www.w3.org/2000/svg">
<g clip-path="url(#clip0_124_49)">
<path d="M8.76003 13.5C9.37585 13.8973 10.1097 14.0704 10.8382 13.9903C11.5666 13.9102 12.2453 13.5817 12.76 13.06L13.21 12.62C13.4073 12.4182 13.5178 12.1472 13.5178 11.865C13.5178 11.5828 13.4073 11.3118 13.21 11.11L11.3 9.22C11.0999 9.02334 10.8306 8.91315 10.55 8.91315C10.2695 8.91315 10.0001 9.02334 9.80003 9.22V9.22C9.59824 9.41728 9.32724 9.52774 9.04503 9.52774C8.76282 9.52774 8.49182 9.41728 8.29003 9.22L5.29003 6.22C5.18995 6.12137 5.11048 6.00384 5.05623 5.87422C5.00199 5.74461 4.97405 5.6055 4.97405 5.465C4.97405 5.32449 5.00199 5.18539 5.05623 5.05577C5.11048 4.92616 5.18995 4.80862 5.29003 4.71V4.71C5.48668 4.50989 5.59688 4.24056 5.59688 3.96C5.59688 3.67944 5.48668 3.4101 5.29003 3.21L3.39003 1.31C3.18824 1.11271 2.91724 1.00225 2.63503 1.00225C2.35282 1.00225 2.08182 1.11271 1.88003 1.31L1.44003 1.76C0.918374 2.27474 0.589863 2.9534 0.509732 3.68186C0.429601 4.41033 0.602737 5.14417 1.00003 5.76C3.07007 8.81073 5.70397 11.4378 8.76003 13.5V13.5Z" stroke="#EB420E" stroke-linecap="round" stroke-linejoin="round"/>
</g>
<defs>
<clipPath id="clip0_124_49">
<rect width="14" height="14" fill="white" transform="translate(0 0.5)"/>
</clipPath>
</defs>
</svg>
