<svg width="29" height="29" viewBox="0 0 29 29" fill="none" xmlns="http://www.w3.org/2000/svg">
<path d="M23 0H6C2.68629 0 0 2.68629 0 6V23C0 26.3137 2.68629 29 6 29H23C26.3137 29 29 26.3137 29 23V6C29 2.68629 26.3137 0 23 0Z" fill="#FF0000"/>
<path d="M21.3875 10.9656C21.2063 10.3313 20.7531 9.87813 20.1188 9.69688C19.0313 9.425 14.4094 9.425 14.4094 9.425C14.4094 9.425 9.87813 9.425 8.70001 9.69688C8.06563 9.87813 7.6125 10.3313 7.43125 10.9656C7.25 12.1438 7.25 14.5 7.25 14.5C7.25 14.5 7.25 16.8563 7.52188 18.0344C7.70313 18.6688 8.15625 19.1219 8.79062 19.3031C9.87812 19.575 14.5 19.575 14.5 19.575C14.5 19.575 19.0312 19.575 20.2094 19.3031C20.8437 19.1219 21.2969 18.6688 21.4781 18.0344C21.75 16.8563 21.75 14.5 21.75 14.5C21.75 14.5 21.75 12.1438 21.3875 10.9656ZM13.05 16.675V12.325L16.8563 14.5L13.05 16.675Z" fill="white"/>
</svg>
